<svg width="32" height="43" viewBox="0 0 32 43" fill="none" xmlns="http://www.w3.org/2000/svg">
<g clip-path="url(#clip0_1_2)">
<path d="M16 0C7.16421 0 0 7.16421 0 16C0 24.8357 13.3335 42.6664 16 42.6664C18.6667 42.6664 32 24.8357 32 16C32 7.16421 24.8358 0 16 0Z" fill="#F5F5F5"/>
<path d="M16 28C22.6274 28 28 22.6274 28 16C28 9.37258 22.6274 4 16 4C9.37258 4 4 9.37258 4 16C4 22.6274 9.37258 28 16 28Z" fill="#1E1E1E"/>
<path d="M11.41 21.5C11.3033 21.5 11.2127 21.468 11.138 21.404C11.074 21.3293 11.042 21.2387 11.042 21.132V10.684C11.042 10.5667 11.074 10.476 11.138 10.412C11.2127 10.3373 11.3033 10.3 11.41 10.3H12.21C12.338 10.3 12.434 10.332 12.498 10.396C12.562 10.46 12.5993 10.5133 12.61 10.556L16.002 17.02L19.41 10.556C19.4313 10.5133 19.4687 10.46 19.522 10.396C19.586 10.332 19.682 10.3 19.81 10.3H20.594C20.7113 10.3 20.802 10.3373 20.866 10.412C20.9407 10.476 20.978 10.5667 20.978 10.684V21.132C20.978 21.2387 20.9407 21.3293 20.866 21.404C20.802 21.468 20.7113 21.5 20.594 21.5H19.81C19.7033 21.5 19.6127 21.468 19.538 21.404C19.474 21.3293 19.442 21.2387 19.442 21.132V13.26L16.77 18.476C16.7273 18.5827 16.6633 18.668 16.578 18.732C16.4927 18.7853 16.386 18.812 16.258 18.812H15.762C15.6233 18.812 15.5113 18.7853 15.426 18.732C15.3513 18.668 15.2873 18.5827 15.234 18.476L12.562 13.26V21.132C12.562 21.2387 12.5247 21.3293 12.45 21.404C12.386 21.468 12.3007 21.5 12.194 21.5H11.41Z" fill="#F5F5F5"/>
</g>
<defs>
<clipPath id="clip0_1_2">
<rect width="32" height="43" fill="white"/>
</clipPath>
</defs>
</svg>
