<svg width="32" height="43" viewBox="0 0 32 43" fill="none" xmlns="http://www.w3.org/2000/svg">
<g clip-path="url(#clip0_8_4)">
<path d="M16 0C7.16421 0 0 7.16421 0 16C0 24.8357 13.3335 42.6664 16 42.6664C18.6667 42.6664 32 24.8357 32 16C32 7.16421 24.8358 0 16 0Z" fill="#F5F5F5"/>
<path d="M16 28C22.6274 28 28 22.6274 28 16C28 9.37258 22.6274 4 16 4C9.37258 4 4 9.37258 4 16C4 22.6274 9.37258 28 16 28Z" fill="#1E1E1E"/>
<path d="M16.008 21.46C15.1013 21.46 14.3227 21.3053 13.672 20.996C13.0213 20.676 12.52 20.1907 12.168 19.54C11.816 18.8787 11.6187 18.052 11.576 17.06C11.5653 16.5907 11.56 16.1427 11.56 15.716C11.56 15.2787 11.5653 14.8253 11.576 14.356C11.6187 13.3747 11.8213 12.5587 12.184 11.908C12.5573 11.2467 13.0693 10.756 13.72 10.436C14.3813 10.1053 15.144 9.94 16.008 9.94C16.8827 9.94 17.6453 10.1053 18.296 10.436C18.9573 10.756 19.4747 11.2467 19.848 11.908C20.2213 12.5587 20.424 13.3747 20.456 14.356C20.4773 14.8253 20.488 15.2787 20.488 15.716C20.488 16.1427 20.4773 16.5907 20.456 17.06C20.424 18.052 20.2267 18.8787 19.864 19.54C19.512 20.1907 19.0107 20.676 18.36 20.996C17.7093 21.3053 16.9253 21.46 16.008 21.46ZM16.008 20.1C16.8293 20.1 17.496 19.8547 18.008 19.364C18.5307 18.8733 18.8133 18.0787 18.856 16.98C18.8773 16.5 18.888 16.0733 18.888 15.7C18.888 15.316 18.8773 14.8893 18.856 14.42C18.8347 13.684 18.696 13.0867 18.44 12.628C18.1947 12.1693 17.864 11.8333 17.448 11.62C17.032 11.4067 16.552 11.3 16.008 11.3C15.4853 11.3 15.016 11.4067 14.6 11.62C14.184 11.8333 13.848 12.1693 13.592 12.628C13.3467 13.0867 13.208 13.684 13.176 14.42C13.1653 14.8893 13.16 15.316 13.16 15.7C13.16 16.0733 13.1653 16.5 13.176 16.98C13.2187 18.0787 13.5013 18.8733 14.024 19.364C14.5467 19.8547 15.208 20.1 16.008 20.1Z" fill="#F5F5F5"/>
</g>
<defs>
<clipPath id="clip0_8_4">
<rect width="32" height="43" fill="white"/>
</clipPath>
</defs>
</svg>
