<svg width="69" height="22" viewBox="0 0 69 22" fill="none" xmlns="http://www.w3.org/2000/svg">
<g clip-path="url(#clip0_24_117)">
<path d="M0 8.74386C0 15.3029 9.71149 15.3029 9.71149 8.74386C9.71149 2.20076 0 2.20076 0 8.74386ZM2.48926 8.74386C2.48926 5.33652 7.23587 5.33652 7.23587 8.74386C7.23625 12.1778 2.48926 12.1778 2.48926 8.74386ZM18.9368 11.3531C17.5033 11.3402 16.5832 10.1238 16.5832 8.73097C16.5832 7.16176 17.5169 6.09438 18.9368 6.09438C19.9516 6.09438 20.6686 6.52641 21.0054 7.48721H23.3871C23.0214 4.95834 20.8982 3.89059 18.9368 3.89059C16.5294 3.89059 14.0958 5.5129 14.0818 8.73097C14.0954 11.949 16.5294 13.571 18.9368 13.5577C20.9512 13.5577 23.0756 12.5043 23.4272 9.82603H21.0464C20.7891 10.8407 19.9652 11.3531 18.9368 11.3531ZM64.9788 3.99793H60.8135V13.4636H63.2353V11.0429H64.9792C69.5106 11.0425 69.5106 4.01159 64.9788 3.99793ZM64.9652 8.86486H63.2349V6.16152C63.7886 6.16152 64.3975 6.14824 64.9652 6.16152C66.3714 6.17517 66.2903 8.86486 64.9652 8.86486ZM37.0577 3.82534H34.2873L32.2789 7.35862H31.1538V3.82383H28.6195V13.5698H31.1538V9.86359H32.3138L34.4188 13.5698H37.1904L34.3441 8.59934L37.0577 3.82534ZM51.0061 4.57714L48.748 0H48.3729L46.114 4.57714L41.0665 5.30997L40.9494 5.66955L44.6013 9.23014L43.7392 14.259L44.0435 14.479L48.5605 12.1053L53.0782 14.479L53.3817 14.2583L52.5196 9.23014L56.1722 5.66955L56.0551 5.30997L51.0061 4.57714ZM50.479 10.5835L48.5601 9.57531L46.6419 10.5835L47.0083 8.44724L45.4562 6.93417L47.601 6.6239L48.5601 4.67955L49.5199 6.6239L51.664 6.93417L50.1119 8.44724L50.479 10.5835ZM46.6127 21.7925H47.2922V18.8699H46.6127V21.7925ZM44.646 20.2893V20.2806C44.8768 20.1251 44.962 19.7264 45.0901 19.539C45.1345 19.4776 45.1966 19.4419 45.2891 19.4419C45.3467 19.4419 45.4141 19.4499 45.4941 19.4818V18.8912C45.4009 18.8563 45.2497 18.8384 45.1477 18.8384C44.9079 18.8384 44.7176 18.9318 44.5926 19.1392C44.3713 19.5125 44.344 20.0348 43.9673 20.0348H43.7225V18.8688H43.0454V21.7921H43.7225V20.5818H44.1045C44.1947 20.5818 44.2553 20.6216 44.3629 20.8655L44.7707 21.7921H45.5558L44.9393 20.5818C44.8503 20.4042 44.757 20.3344 44.646 20.2893ZM50.3275 20.0189H49.0717V18.8692H48.3922V21.7925H49.0717V20.5947H50.3275V21.7925H51.0061V18.8692H50.3275V20.0189ZM53.3298 18.8388C52.4378 18.8388 51.8201 19.4499 51.8201 20.3375C51.8201 21.2251 52.4382 21.8369 53.3298 21.8369C54.2211 21.8369 54.838 21.2251 54.838 20.3375C54.838 19.4499 54.2211 18.8388 53.3298 18.8388ZM53.3298 21.274C52.8679 21.274 52.5439 20.9592 52.5439 20.3375C52.5439 19.7166 52.8679 19.4017 53.3298 19.4017C53.7902 19.4017 54.1142 19.7166 54.1142 20.3375C54.1146 20.9592 53.7902 21.274 53.3298 21.274Z" fill="#F5F5F5"/>
</g>
<defs>
<clipPath id="clip0_24_117">
<rect width="68.5882" height="22" fill="white"/>
</clipPath>
</defs>
</svg>
